<?xml version="1.0" encoding="UTF-8" standalone="no"?>
<svg
   xmlns:dc="http://purl.org/dc/elements/1.1/"
   xmlns:cc="http://creativecommons.org/ns#"
   xmlns:rdf="http://www.w3.org/1999/02/22-rdf-syntax-ns#"
   xmlns:svg="http://www.w3.org/2000/svg"
   xmlns="http://www.w3.org/2000/svg"
   xmlns:xlink="http://www.w3.org/1999/xlink"
   xmlns:sodipodi="http://sodipodi.sourceforge.net/DTD/sodipodi-0.dtd"
   xmlns:inkscape="http://www.inkscape.org/namespaces/inkscape"
   height="496pt"
   viewBox="0 0 496 496"
   width="496pt"
   version="1.1"
   id="svg20"
   sodipodi:docname="digital.svg"
   inkscape:version="0.92.4 (unknown)">
  <metadata
     id="metadata26">
    <rdf:RDF>
      <cc:Work
         rdf:about="">
        <dc:format>image/svg+xml</dc:format>
        <dc:type
           rdf:resource="http://purl.org/dc/dcmitype/StillImage" />
      </cc:Work>
    </rdf:RDF>
  </metadata>
  <defs
     id="defs24">
    <linearGradient
       inkscape:collect="always"
       id="linearGradient2534">
      <stop
         style="stop-color:#387fc1;stop-opacity:0.94117647"
         offset="0"
         id="stop2530" />
      <stop
         style="stop-color:#f28f3d;stop-opacity:0.94117647"
         offset="1"
         id="stop2532" />
    </linearGradient>
    <linearGradient
       inkscape:collect="always"
       xlink:href="#linearGradient2534"
       id="linearGradient2536"
       x1="216"
       y1="248"
       x2="286.42578"
       y2="248"
       gradientUnits="userSpaceOnUse" />
    <linearGradient
       inkscape:collect="always"
       xlink:href="#linearGradient2534"
       id="linearGradient2538"
       x1="216"
       y1="368"
       x2="280"
       y2="368"
       gradientUnits="userSpaceOnUse" />
    <linearGradient
       inkscape:collect="always"
       xlink:href="#linearGradient2534"
       id="linearGradient2540"
       x1="152"
       y1="256"
       x2="344"
       y2="256"
       gradientUnits="userSpaceOnUse" />
    <linearGradient
       inkscape:collect="always"
       xlink:href="#linearGradient2534"
       id="linearGradient2542"
       x1="32"
       y1="72"
       x2="96"
       y2="72"
       gradientUnits="userSpaceOnUse" />
    <linearGradient
       inkscape:collect="always"
       xlink:href="#linearGradient2534"
       id="linearGradient2544"
       x1="112"
       y1="72"
       x2="128"
       y2="72"
       gradientUnits="userSpaceOnUse" />
    <linearGradient
       inkscape:collect="always"
       xlink:href="#linearGradient2534"
       id="linearGradient2546"
       x1="32"
       y1="40"
       x2="128"
       y2="40"
       gradientUnits="userSpaceOnUse" />
    <linearGradient
       inkscape:collect="always"
       xlink:href="#linearGradient2534"
       id="linearGradient2548"
       x1="416"
       y1="384"
       x2="432"
       y2="384"
       gradientUnits="userSpaceOnUse" />
    <linearGradient
       inkscape:collect="always"
       xlink:href="#linearGradient2534"
       id="linearGradient2550"
       x1="392"
       y1="72"
       x2="456"
       y2="72"
       gradientUnits="userSpaceOnUse" />
    <linearGradient
       inkscape:collect="always"
       xlink:href="#linearGradient2534"
       id="linearGradient2552"
       x1="0"
       y1="248"
       x2="496"
       y2="248"
       gradientUnits="userSpaceOnUse" />
  </defs>
  <sodipodi:namedview
     pagecolor="#ffffff"
     bordercolor="#666666"
     borderopacity="1"
     objecttolerance="10"
     gridtolerance="10"
     guidetolerance="10"
     inkscape:pageopacity="0"
     inkscape:pageshadow="2"
     inkscape:window-width="1366"
     inkscape:window-height="715"
     id="namedview22"
     showgrid="false"
     inkscape:zoom="0.35685484"
     inkscape:cx="-130.30508"
     inkscape:cy="330.66667"
     inkscape:window-x="0"
     inkscape:window-y="27"
     inkscape:window-maximized="1"
     inkscape:current-layer="svg20" />
  <path
     d="m496 85.769531v-27.539062l-10.351562-3.453125c-1.375-4.953125-3.34375-9.707032-5.886719-14.183594l4.886719-9.777344-19.472657-19.472656-9.769531 4.894531c-4.484375-2.535156-9.230469-4.503906-14.183594-5.878906l-3.453125-10.359375h-27.539062l-3.445313 10.359375c-4.953125 1.375-9.695312 3.34375-14.183594 5.878906l-9.769531-4.886719-17.894531 17.894532c-35.847656-19.175782-75.914062-29.246094-116.9375-29.246094-30.871094 0-60.847656 5.609375-89.289062 16.609375-3.136719-9.609375-12.070313-16.609375-22.710938-16.609375h-112c-13.230469 0-24 10.769531-24 24v64c0 13.230469 10.769531 24 24 24h16.742188c-26.621094 40.414062-40.742188 87.0625-40.742188 136 0 56 18.878906 109.953125 53.359375 153.601562-14.632813 4.070313-25.976563 16.117188-28.710937 31.253907-14.121094 3.328125-24.648438 16.03125-24.648438 31.144531 0 17.648438 14.351562 32 32 32h112c10.441406 0 19.632812-5.097656 25.480469-12.847656 25.253906 8.433594 51.625 12.847656 78.519531 12.847656 51.65625 0 102.167969-16.320312 144-46.144531v14.144531c0 17.648438 14.351562 32 32 32s32-14.351562 32-32v-16.097656c0-5.070313 2.136719-9.65625 5.71875-12.269532 16.457031-12.015624 26.28125-31.320312 26.28125-51.632812 0-13.769531-4.367188-26.808594-12.335938-37.679688 13.449219-31.039062 20.335938-64.046874 20.335938-98.320312 0-41.023438-10.070312-81.097656-29.257812-116.921875l17.898437-17.902344-4.886719-9.769531c2.535156-4.496094 4.503906-9.230469 5.886719-14.183594zm-131.191406-38.089843c-.953125 2.320312-1.777344 4.6875-2.449219 7.105468l-10.359375 3.445313v.449219c-31.761719-17.472657-67.414062-26.679688-104-26.679688-30.320312 0-60.480469 6.433594-88 18.6875v-17.34375c27.921875-11.464844 57.488281-17.34375 88-17.34375 41.265625 0 81.433594 11.015625 116.808594 31.679688zm18.015625 84.96875 9.769531-4.886719c4.484375 2.535156 9.230469 4.503906 14.183594 5.878906l3.453125 10.359375h8.503906c19.089844 31.289062 29.265625 67.105469 29.265625 104 0 25.167969-4.648438 49.625-13.726562 72.792969-3.707032-.578125-7.488282-.890625-11.363282-.792969-33.460937.550781-61.671875 28.207031-62.871094 61.640625-.351562 9.785156 1.632813 19.3125 5.457032 28.007813-34.296875 25.023437-74.71875 38.351562-117.496094 38.351562-35.664062 0-70.566406-9.535156-101.144531-27.488281-5.792969-10.320313-15.992188-17.816407-28.054688-19.894531-45-38.136719-70.800781-93.609376-70.800781-152.617188 0-36.257812 9.679688-71.246094 28.023438-102.0625l3.976562 7.949219 20.945312-41.886719h35.054688c13.230469 0 24-10.769531 24-24v-19.550781c27.191406-13.335938 57.488281-20.449219 88-20.449219 36.886719 0 72.71875 10.160156 104 29.246094v8.515625l10.351562 3.453125c1.375 4.953125 3.34375 9.695312 5.886719 14.183594l-4.886719 9.769531zm-366.824219-44.648438v-64c0-4.414062 3.59375-8 8-8h112c4.40625 0 8 3.585938 8 8v64c0 4.414062-3.59375 8-8 8h-44.945312l-11.054688 22.113281-11.054688-22.113281h-44.945312c-4.40625 0-8-3.585938-8-8zm43.519531 24.9375 8.167969 16.328125c-23.289062 35.292969-35.6875 76.199219-35.6875 118.734375 0 58.777344 23.734375 114.296875 65.550781 154.878906-3.382812 1.335938-6.621093 3.042969-9.550781 5.273438-4.183594-3.175782-8.953125-5.375-13.96875-6.703125-37.414062-42.402344-58.03125-96.816407-58.03125-153.449219 0-48.984375 15.121094-95.527344 43.519531-135.0625zm84.480469 367.0625h-112c-8.824219 0-16-7.175781-16-16s7.175781-16 16-16h8v-8c0-13.230469 10.769531-24 24-24 6.910156 0 13.296875 2.953125 17.976562 8.304688l6.023438 6.886718 6.023438-6.886718c4.679687-5.351563 11.066406-8.304688 17.976562-8.304688 13.230469 0 24 10.769531 24 24v8h8c8.824219 0 16 7.175781 16 16s-7.175781 16-16 16zm31.566406-11.695312c.195313-1.425782.433594-2.832032.433594-4.304688 0-4.863281-1.183594-9.414062-3.136719-13.550781 23.921875 8.863281 49.335938 13.550781 75.136719 13.550781 45.710938 0 88.9375-14.105469 125.734375-40.566406 3.3125 4.214844 7.152344 8.046875 11.523437 11.375-39.632812 29.113281-87.84375 45.191406-137.257812 45.191406-24.808594 0-49.121094-4.03125-72.433594-11.695312zm248.433594 11.695312c-8.824219 0-16-7.175781-16-16h32c0 8.824219-7.175781 16-16 16zm28.289062-57.289062c-7.695312 5.617187-12.289062 15.03125-12.289062 25.191406v.097656h-8v-40h-16v40h-8v-.121094c0-10.085937-4.664062-19.542968-12.480469-25.3125-12.765625-9.421875-20.054687-24.503906-19.488281-40.34375.898438-25.070312 22.046875-45.808594 47.152344-46.214844.273437-.007812.542968-.007812.816406-.007812 12.679688 0 24.609375 4.871094 33.664062 13.785156 9.238282 9.085938 14.335938 21.246094 14.335938 34.214844 0 15.222656-7.367188 29.695312-19.710938 38.710938zm11.304688-88.984376c-4.296875-3.421874-8.976562-6.207031-13.914062-8.390624 9.464843-24.664063 14.320312-50.640626 14.320312-77.335938 0-36.59375-9.191406-72.238281-26.664062-104h.441406l3.445312-10.359375c2.425782-.671875 4.792969-1.496094 7.105469-2.449219 20.65625 35.367188 31.671875 75.535156 31.671875 116.808594 0 29.769531-5.550781 58.519531-16.40625 85.726562zm16.40625-259.496093-8.03125 2.671875-.914062 4.554687c-1.222657 6.128907-3.613282 11.878907-7.09375 17.109375l-2.578126 3.859375 3.792969 7.582031-3.160156 3.167969-7.574219-3.800781-3.867187 2.578125c-5.222657 3.488281-10.980469 5.863281-17.109375 7.09375l-4.554688.90625-2.679687 8.046875h-4.460938l-2.679687-8.039062-4.554688-.90625c-6.128906-1.222657-11.878906-3.605469-17.109375-7.09375l-3.867187-2.578126-7.574219 3.800782-3.160156-3.167969 3.792969-7.582031-2.578126-3.859375c-3.488281-5.222657-5.871093-10.980469-7.09375-17.109375l-.914062-4.554688-8.03125-2.679687v-4.460938l8.03125-2.671875.914062-4.554687c1.222657-6.136719 3.613282-11.886719 7.09375-17.109375l2.578126-3.859375-3.792969-7.589844 3.160156-3.160156 7.574219 3.800781 3.867187-2.578125c5.222657-3.488281 10.980469-5.863281 17.109375-7.09375l4.554688-.90625 2.679687-8.046875h4.460938l2.679687 8.039062 4.554688.90625c6.128906 1.222657 11.878906 3.605469 17.109375 7.09375l3.867187 2.578126 7.574219-3.800782 3.160156 3.160156-3.792969 7.589844 2.578126 3.859375c3.488281 5.214844 5.871093 10.972657 7.09375 17.109375l.914062 4.554688 8.03125 2.679687zm0 0"
     id="path2"
     style="fill:url(#linearGradient2552);fill-opacity:1" />
  <path
     d="m424 40c-17.648438 0-32 14.351562-32 32s14.351562 32 32 32 32-14.351562 32-32-14.351562-32-32-32zm0 48c-8.824219 0-16-7.175781-16-16s7.175781-16 16-16 16 7.175781 16 16-7.175781 16-16 16zm0 0"
     id="path4"
     style="fill:url(#linearGradient2550);fill-opacity:1" />
  <path
     d="m416 376h16v16h-16zm0 0"
     id="path6"
     style="fill:url(#linearGradient2548);fill-opacity:1" />
  <path
     d="m32 32h96v16h-96zm0 0"
     id="path8"
     style="fill:url(#linearGradient2546);fill-opacity:1" />
  <path
     d="m112 64h16v16h-16zm0 0"
     id="path10"
     style="fill:url(#linearGradient2544);fill-opacity:1" />
  <path
     d="m32 64h64v16h-64zm0 0"
     id="path12"
     style="fill:url(#linearGradient2542);fill-opacity:1" />
  <path
     d="m320 104h-144c-13.230469 0-24 10.769531-24 24v256c0 13.230469 10.769531 24 24 24h144c13.230469 0 24-10.769531 24-24v-256c0-13.230469-10.769531-24-24-24zm-144 16h144c4.40625 0 8 3.585938 8 8v24h-160v-24c0-4.414062 3.59375-8 8-8zm152 48v160h-160v-160zm-8 224h-144c-4.40625 0-8-3.585938-8-8v-40h160v40c0 4.414062-3.59375 8-8 8zm0 0"
     id="path14"
     style="fill:url(#linearGradient2540);fill-opacity:1" />
  <path
     d="m216 360h64v16h-64zm0 0"
     id="path16"
     style="fill:url(#linearGradient2538);fill-opacity:1" />
  <path
     d="m286.425781 248-70.425781-46.945312v93.890624zm-54.425781-17.054688 25.574219 17.054688-25.574219 17.054688zm0 0"
     id="path18"
     style="fill:url(#linearGradient2536);fill-opacity:1" />
</svg>
