<?xml version="1.0" encoding="UTF-8" standalone="no"?>
<svg
   xmlns:dc="http://purl.org/dc/elements/1.1/"
   xmlns:cc="http://creativecommons.org/ns#"
   xmlns:rdf="http://www.w3.org/1999/02/22-rdf-syntax-ns#"
   xmlns:svg="http://www.w3.org/2000/svg"
   xmlns="http://www.w3.org/2000/svg"
   xmlns:sodipodi="http://sodipodi.sourceforge.net/DTD/sodipodi-0.dtd"
   xmlns:inkscape="http://www.inkscape.org/namespaces/inkscape"
   version="1.1"
   viewBox="0 0 512 512"
   enable-background="new 0 0 512 512"
   id="svg14"
   sodipodi:docname="email.svg"
   inkscape:version="0.92.4 (unknown)">
  <metadata
     id="metadata20">
    <rdf:RDF>
      <cc:Work
         rdf:about="">
        <dc:format>image/svg+xml</dc:format>
        <dc:type
           rdf:resource="http://purl.org/dc/dcmitype/StillImage" />
      </cc:Work>
    </rdf:RDF>
  </metadata>
  <defs
     id="defs18" />
  <sodipodi:namedview
     pagecolor="#ffffff"
     bordercolor="#666666"
     borderopacity="1"
     objecttolerance="10"
     gridtolerance="10"
     guidetolerance="10"
     inkscape:pageopacity="0"
     inkscape:pageshadow="2"
     inkscape:window-width="746"
     inkscape:window-height="480"
     id="namedview16"
     showgrid="false"
     inkscape:zoom="0.4609375"
     inkscape:cx="256"
     inkscape:cy="256"
     inkscape:window-x="0"
     inkscape:window-y="27"
     inkscape:window-maximized="0"
     inkscape:current-layer="svg14" />
  <g
     id="g12"
     style="fill:#f39648;fill-opacity:0.94117647">
    <g
       id="g10"
       style="fill:#f39648;fill-opacity:0.94117647">
      <path
         d="m494.2,488c0,0 0-225.8 0-301 0-3.1-3.9-7-7.7-9.9l-78.7-57.1v-63.1c0-6.2-5.2-10.4-10.4-10.4h-89.7l-45.7-33.3c-3.1-2.1-8.3-2.1-11.5,0l-45.7,33.3h-89.7c-6.2,0-10.4,5.2-10.4,10.4v62.4l-79.7,57.9c-4.7,2.9-7.7,6.7-7.7,9.9 0,75.7 0,303 0,303 0,5.9 4.7,10 9.6,10.4 0.3,0 0.5,0 0.8,0h456c6.7-0.1 10.5-5.3 10.5-12.5zm-19.8-282.3v263.6l-172.1-137.8 172.1-125.8zm-7.7-18.3l-58.9,42.9v-86.2l58.9,43.3zm-210.9-154.5l18.3,13.5h-36.7l18.4-13.5zm131.2,34.4v178.2l-131.2,95.6-131.2-95.6v-178.2h262.4zm-349.8,138.4l172.1,125.8-172.1,138.6v-264.4zm67.6,25.4l-60.4-44 60.4-43.9v87.9zm-48.9,249.5l170.1-136.9 23.5,17.2c4.5,3.4 7.9,3.4 12.5,0l23.5-17.2 171.1,136.9h-400.7z"
         id="path2"
         style="fill:#f39648;fill-opacity:0.94117647" />
      <rect
         width="140.5"
         x="186.1"
         y="118.3"
         height="19.8"
         id="rect4"
         style="fill:#f39648;fill-opacity:0.94117647" />
      <rect
         width="140.5"
         x="186.1"
         y="181.8"
         height="19.8"
         id="rect6"
         style="fill:#f39648;fill-opacity:0.94117647" />
      <rect
         width="140.5"
         x="186.1"
         y="245.3"
         height="19.8"
         id="rect8"
         style="fill:#f39648;fill-opacity:0.94117647" />
    </g>
  </g>
</svg>
