<?xml version="1.0" encoding="UTF-8" standalone="no"?>
<svg
   xmlns:dc="http://purl.org/dc/elements/1.1/"
   xmlns:cc="http://creativecommons.org/ns#"
   xmlns:rdf="http://www.w3.org/1999/02/22-rdf-syntax-ns#"
   xmlns:svg="http://www.w3.org/2000/svg"
   xmlns="http://www.w3.org/2000/svg"
   xmlns:sodipodi="http://sodipodi.sourceforge.net/DTD/sodipodi-0.dtd"
   xmlns:inkscape="http://www.inkscape.org/namespaces/inkscape"
   height="480pt"
   viewBox="-31 0 479 480"
   width="480pt"
   version="1.1"
   id="svg40"
   sodipodi:docname="chat.svg"
   inkscape:version="0.92.4 (unknown)">
  <metadata
     id="metadata46">
    <rdf:RDF>
      <cc:Work
         rdf:about="">
        <dc:format>image/svg+xml</dc:format>
        <dc:type
           rdf:resource="http://purl.org/dc/dcmitype/StillImage" />
      </cc:Work>
    </rdf:RDF>
  </metadata>
  <defs
     id="defs44" />
  <sodipodi:namedview
     pagecolor="#ffffff"
     bordercolor="#666666"
     borderopacity="1"
     objecttolerance="10"
     gridtolerance="10"
     guidetolerance="10"
     inkscape:pageopacity="0"
     inkscape:pageshadow="2"
     inkscape:window-width="746"
     inkscape:window-height="480"
     id="namedview42"
     showgrid="false"
     inkscape:zoom="0.36875"
     inkscape:cx="614.37"
     inkscape:cy="-113.89831"
     inkscape:window-x="305"
     inkscape:window-y="75"
     inkscape:window-maximized="0"
     inkscape:current-layer="svg40" />
  <g
     fill="#231f20"
     id="g38"
     style="fill:#f49c53;fill-opacity:1;opacity:0.99999999">
    <path
       d="m376.5 184h-160c-22.089844 0-40 17.910156-40 40v64c0 22.089844 17.910156 40 40 40h32c4.417969 0 8-3.582031 8-8s-3.582031-8-8-8h-32c-13.253906 0-24-10.746094-24-24v-64c0-13.253906 10.746094-24 24-24h160c13.253906 0 24 10.746094 24 24v64c0 13.253906-10.746094 24-24 24-4.417969 0-8 3.582031-8 8v44.71875l-50.320312-50.398438c-1.507813-1.496093-3.554688-2.332031-5.679688-2.320312h-32c-4.417969 0-8 3.582031-8 8s3.582031 8 8 8h28.71875l61.601562 61.679688c1.507813 1.496093 3.554688 2.332031 5.679688 2.320312 1.050781.027344 2.089844-.191406 3.039062-.640625 2.988282-1.226563 4.945313-4.128906 4.960938-7.359375v-56.800781c18.625-3.800781 32.003906-20.1875 32-39.199219v-64c0-22.089844-17.910156-40-40-40zm0 0"
       id="path2"
       style="fill:#f49c53;fill-opacity:1" />
    <path
       d="m280.5 240c4.417969 0 8-3.582031 8-8s-3.582031-8-8-8h-32c-4.417969 0-8 3.582031-8 8s3.582031 8 8 8zm0 0"
       id="path4"
       style="fill:#f49c53;fill-opacity:1" />
    <path
       d="m368.5 224h-56c-4.417969 0-8 3.582031-8 8s3.582031 8 8 8h56c4.417969 0 8-3.582031 8-8s-3.582031-8-8-8zm0 0"
       id="path6"
       style="fill:#f49c53;fill-opacity:1" />
    <path
       d="m216.5 272c0 4.417969 3.582031 8 8 8h48c4.417969 0 8-3.582031 8-8s-3.582031-8-8-8h-48c-4.417969 0-8 3.582031-8 8zm0 0"
       id="path8"
       style="fill:#f49c53;fill-opacity:1" />
    <path
       d="m312.5 272c0 4.417969-3.582031 8-8 8s-8-3.582031-8-8 3.582031-8 8-8 8 3.582031 8 8zm0 0"
       id="path10"
       style="fill:#f49c53;fill-opacity:1" />
    <path
       d="m344.5 272c0 4.417969-3.582031 8-8 8s-8-3.582031-8-8 3.582031-8 8-8 8 3.582031 8 8zm0 0"
       id="path12"
       style="fill:#f49c53;fill-opacity:1" />
    <path
       d="m376.5 272c0 4.417969-3.582031 8-8 8s-8-3.582031-8-8 3.582031-8 8-8 8 3.582031 8 8zm0 0"
       id="path14"
       style="fill:#f49c53;fill-opacity:1" />
    <path
       d="m168.5 176h-40c-4.417969 0-8 3.582031-8 8s3.582031 8 8 8h40c4.417969 0 8-3.582031 8-8s-3.582031-8-8-8zm0 0"
       id="path16"
       style="fill:#f49c53;fill-opacity:1" />
    <path
       d="m104.5 216c-4.417969 0-8 3.582031-8 8s3.582031 8 8 8h16c4.417969 0 8-3.582031 8-8s-3.582031-8-8-8zm0 0"
       id="path18"
       style="fill:#f49c53;fill-opacity:1" />
    <path
       d="m160.5 224c0 4.417969-3.582031 8-8 8s-8-3.582031-8-8 3.582031-8 8-8 8 3.582031 8 8zm0 0"
       id="path20"
       style="fill:#f49c53;fill-opacity:1" />
    <path
       d="m269.140625 164c1.070313 1.839844 2.824219 3.175781 4.882813 3.714844 2.054687.539062 4.242187.238281 6.078124-.835938 3.777344-2.222656 5.0625-7.074218 2.878907-10.878906-7.117188-12.328125-20.246094-19.941406-34.480469-20h-160c-22.089844 0-40 17.910156-40 40v64c-.003906 19.011719 13.375 35.398438 32 39.199219v56.800781c.015625 3.230469 1.972656 6.132812 4.960938 7.359375.949218.449219 1.988281.667969 3.039062.640625 2.125.011719 4.171875-.824219 5.679688-2.320312l64-64c3.136718-3.136719 3.136718-8.222657 0-11.359376-3.136719-3.136718-8.222657-3.136718-11.359376 0l-50.320312 50.398438v-44.71875c0-4.417969-3.582031-8-8-8-13.253906 0-24-10.746094-24-24v-64c0-13.253906 10.746094-24 24-24h160c8.523438.050781 16.378906 4.617188 20.640625 12zm0 0"
       id="path22"
       style="fill:#f49c53;fill-opacity:1" />
    <path
       d="m120.5 432c-4.417969 0-8 3.582031-8 8s3.582031 8 8 8h80c4.417969 0 8-3.582031 8-8s-3.582031-8-8-8zm0 0"
       id="path24"
       style="fill:#f49c53;fill-opacity:1" />
    <path
       d="m56.5 40c0 4.417969-3.582031 8-8 8s-8-3.582031-8-8 3.582031-8 8-8 8 3.582031 8 8zm0 0"
       id="path26"
       style="fill:#f49c53;fill-opacity:1" />
    <path
       d="m88.5 40c0 4.417969-3.582031 8-8 8s-8-3.582031-8-8 3.582031-8 8-8 8 3.582031 8 8zm0 0"
       id="path28"
       style="fill:#f49c53;fill-opacity:1" />
    <path
       d="m272.5 48c4.417969 0 8-3.582031 8-8s-3.582031-8-8-8h-56c-4.417969 0-8 3.582031-8 8s3.582031 8 8 8zm0 0"
       id="path30"
       style="fill:#f49c53;fill-opacity:1" />
    <path
       d="m64.5 400c-4.417969 0-8 3.582031-8 8s3.582031 8 8 8h192c4.417969 0 8-3.582031 8-8s-3.582031-8-8-8zm0 0"
       id="path32"
       style="fill:#f49c53;fill-opacity:1" />
    <path
       d="m56.5 72c0 4.417969 3.582031 8 8 8h192c4.417969 0 8-3.582031 8-8s-3.582031-8-8-8h-192c-4.417969 0-8 3.582031-8 8zm0 0"
       id="path34"
       style="fill:#f49c53;fill-opacity:1" />
    <path
       d="m312.5 360c-4.417969 0-8 3.582031-8 8v72c0 13.253906-10.746094 24-24 24h-240c-13.253906 0-24-10.746094-24-24v-400c0-13.253906 10.746094-24 24-24h240c13.253906 0 24 10.746094 24 24v120c0 4.417969 3.582031 8 8 8s8-3.582031 8-8v-120c0-22.089844-17.910156-40-40-40h-240c-22.089844 0-40 17.910156-40 40v400c0 22.089844 17.910156 40 40 40h240c22.089844 0 40-17.910156 40-40v-72c0-4.417969-3.582031-8-8-8zm0 0"
       id="path36"
       style="fill:#f49c53;fill-opacity:1" />
  </g>
</svg>
