<?xml version="1.0" encoding="UTF-8" standalone="no"?>
<!-- Generator: Adobe Illustrator 19.0.0, SVG Export Plug-In . SVG Version: 6.00 Build 0)  -->

<svg
   xmlns:dc="http://purl.org/dc/elements/1.1/"
   xmlns:cc="http://creativecommons.org/ns#"
   xmlns:rdf="http://www.w3.org/1999/02/22-rdf-syntax-ns#"
   xmlns:svg="http://www.w3.org/2000/svg"
   xmlns="http://www.w3.org/2000/svg"
   xmlns:sodipodi="http://sodipodi.sourceforge.net/DTD/sodipodi-0.dtd"
   xmlns:inkscape="http://www.inkscape.org/namespaces/inkscape"
   version="1.1"
   id="Capa_1"
   x="0px"
   y="0px"
   viewBox="0 0 434.168 434.168"
   style="enable-background:new 0 0 434.168 434.168;"
   xml:space="preserve"
   sodipodi:docname="cpa.svg"
   inkscape:version="0.92.4 (unknown)"><metadata
   id="metadata41"><rdf:RDF><cc:Work
       rdf:about=""><dc:format>image/svg+xml</dc:format><dc:type
         rdf:resource="http://purl.org/dc/dcmitype/StillImage" /></cc:Work></rdf:RDF></metadata><defs
   id="defs39" /><sodipodi:namedview
   pagecolor="#ffffff"
   bordercolor="#666666"
   borderopacity="1"
   objecttolerance="10"
   gridtolerance="10"
   guidetolerance="10"
   inkscape:pageopacity="0"
   inkscape:pageshadow="2"
   inkscape:window-width="746"
   inkscape:window-height="480"
   id="namedview37"
   showgrid="false"
   inkscape:zoom="0.54356839"
   inkscape:cx="217.084"
   inkscape:cy="217.084"
   inkscape:window-x="0"
   inkscape:window-y="27"
   inkscape:window-maximized="0"
   inkscape:current-layer="Capa_1" />
<g
   id="g4"
   style="fill:#f29b51;fill-opacity:0.94117647">
	<path
   d="M332.318,230.196V34.967H40.93v364.235h134.038c9.616,0,17.483,7.867,17.483,17.483s-7.867,17.483-17.483,17.483H23.446   c-9.616,0-17.483-7.867-17.483-17.483V17.483C5.963,7.867,13.831,0,23.446,0h326.354c9.616,0,17.483,7.867,17.483,17.483v212.713   c0,9.616-7.867,17.483-17.483,17.483S332.318,239.812,332.318,230.196z M422.357,272.739c-7.285-6.411-18.357-5.828-24.768,1.457   l-95.867,106.648l-48.079-46.331c-6.993-6.702-18.066-6.411-24.768,0.583s-6.411,18.066,0.583,24.768l61.191,58.86   c3.205,3.205,7.576,4.954,12.238,4.954c0.291,0,0.291,0,0.583,0c4.662-0.291,9.324-2.331,12.238-5.828l107.814-120.052   C430.224,290.222,429.641,279.15,422.357,272.739z M268.212,101.986H110.863c-9.616,0-17.483,7.867-17.483,17.483   s7.867,17.483,17.483,17.483h157.349c9.616,0,17.483-7.867,17.483-17.483S277.828,101.986,268.212,101.986z M285.696,215.627   c0-9.616-7.867-17.483-17.483-17.483H110.863c-9.616,0-17.483,7.867-17.483,17.483c0,9.616,7.867,17.483,17.483,17.483h157.349   C277.828,233.11,285.696,225.243,285.696,215.627z M110.863,291.388c-9.616,0-17.483,7.867-17.483,17.483   c0,9.616,7.867,17.483,17.483,17.483h46.622c9.616,0,17.483-7.867,17.483-17.483c0-9.616-7.867-17.483-17.483-17.483H110.863z"
   id="path2"
   style="fill:#f29b51;fill-opacity:0.94117647" />
</g>
<g
   id="g6">
</g>
<g
   id="g8">
</g>
<g
   id="g10">
</g>
<g
   id="g12">
</g>
<g
   id="g14">
</g>
<g
   id="g16">
</g>
<g
   id="g18">
</g>
<g
   id="g20">
</g>
<g
   id="g22">
</g>
<g
   id="g24">
</g>
<g
   id="g26">
</g>
<g
   id="g28">
</g>
<g
   id="g30">
</g>
<g
   id="g32">
</g>
<g
   id="g34">
</g>
</svg>