<?xml version="1.0" encoding="UTF-8" standalone="no"?>
<svg
   xmlns:dc="http://purl.org/dc/elements/1.1/"
   xmlns:cc="http://creativecommons.org/ns#"
   xmlns:rdf="http://www.w3.org/1999/02/22-rdf-syntax-ns#"
   xmlns:svg="http://www.w3.org/2000/svg"
   xmlns="http://www.w3.org/2000/svg"
   xmlns:xlink="http://www.w3.org/1999/xlink"
   xmlns:sodipodi="http://sodipodi.sourceforge.net/DTD/sodipodi-0.dtd"
   xmlns:inkscape="http://www.inkscape.org/namespaces/inkscape"
   height="512pt"
   viewBox="0 0 512 512"
   width="512pt"
   version="1.1"
   id="svg24"
   sodipodi:docname="seo.svg"
   inkscape:version="0.92.4 (unknown)">
  <metadata
     id="metadata30">
    <rdf:RDF>
      <cc:Work
         rdf:about="">
        <dc:format>image/svg+xml</dc:format>
        <dc:type
           rdf:resource="http://purl.org/dc/dcmitype/StillImage" />
      </cc:Work>
    </rdf:RDF>
  </metadata>
  <defs
     id="defs28">
    <linearGradient
       id="linearGradient1018"
       inkscape:collect="always">
      <stop
         id="stop1014"
         offset="0"
         style="stop-color:#f28f3d;stop-opacity:1;" />
      <stop
         id="stop1016"
         offset="1"
         style="stop-color:#387fc1;stop-opacity:0.99456519" />
    </linearGradient>
    <linearGradient
       id="linearGradient1012"
       inkscape:collect="always">
      <stop
         id="stop1008"
         offset="0"
         style="stop-color:#f28f3d;stop-opacity:1;" />
      <stop
         id="stop1010"
         offset="1"
         style="stop-color:#387fc1;stop-opacity:0.99456519" />
    </linearGradient>
    <linearGradient
       id="linearGradient1006"
       inkscape:collect="always">
      <stop
         id="stop1002"
         offset="0"
         style="stop-color:#f28f3d;stop-opacity:1;" />
      <stop
         id="stop1004"
         offset="1"
         style="stop-color:#387fc1;stop-opacity:0.99456519" />
    </linearGradient>
    <linearGradient
       id="linearGradient1000"
       inkscape:collect="always">
      <stop
         id="stop996"
         offset="0"
         style="stop-color:#f28f3d;stop-opacity:1;" />
      <stop
         id="stop998"
         offset="1"
         style="stop-color:#387fc1;stop-opacity:0.99456519" />
    </linearGradient>
    <linearGradient
       id="linearGradient994"
       inkscape:collect="always">
      <stop
         id="stop990"
         offset="0"
         style="stop-color:#f28f3d;stop-opacity:1;" />
      <stop
         id="stop992"
         offset="1"
         style="stop-color:#387fc1;stop-opacity:0.99456519" />
    </linearGradient>
    <linearGradient
       id="linearGradient988"
       inkscape:collect="always">
      <stop
         id="stop984"
         offset="0"
         style="stop-color:#f28f3d;stop-opacity:1;" />
      <stop
         id="stop986"
         offset="1"
         style="stop-color:#387fc1;stop-opacity:0.99456519" />
    </linearGradient>
    <linearGradient
       id="linearGradient982"
       inkscape:collect="always">
      <stop
         id="stop978"
         offset="0"
         style="stop-color:#f28f3d;stop-opacity:1;" />
      <stop
         id="stop980"
         offset="1"
         style="stop-color:#387fc1;stop-opacity:0.99456519" />
    </linearGradient>
    <linearGradient
       id="linearGradient976"
       inkscape:collect="always">
      <stop
         id="stop972"
         offset="0"
         style="stop-color:#f28f3d;stop-opacity:1;" />
      <stop
         id="stop974"
         offset="1"
         style="stop-color:#387fc1;stop-opacity:0.99456519" />
    </linearGradient>
    <linearGradient
       id="linearGradient970"
       inkscape:collect="always">
      <stop
         id="stop966"
         offset="0"
         style="stop-color:#f28f3d;stop-opacity:1;" />
      <stop
         id="stop968"
         offset="1"
         style="stop-color:#387fc1;stop-opacity:0.99456519" />
    </linearGradient>
    <linearGradient
       id="linearGradient964"
       inkscape:collect="always">
      <stop
         id="stop960"
         offset="0"
         style="stop-color:#f28f3d;stop-opacity:1;" />
      <stop
         id="stop962"
         offset="1"
         style="stop-color:#387fc1;stop-opacity:0.99456519" />
    </linearGradient>
    <linearGradient
       inkscape:collect="always"
       id="linearGradient930">
      <stop
         style="stop-color:#f28f3d;stop-opacity:1;"
         offset="0"
         id="stop926" />
      <stop
         style="stop-color:#387fc1;stop-opacity:0.99456519"
         offset="1"
         id="stop928" />
    </linearGradient>
    <linearGradient
       inkscape:collect="always"
       xlink:href="#linearGradient930"
       id="linearGradient932"
       x1="312.13559"
       y1="377.53726"
       x2="360.13559"
       y2="349.28812"
       gradientUnits="userSpaceOnUse" />
    <linearGradient
       inkscape:collect="always"
       xlink:href="#linearGradient1018"
       id="linearGradient934"
       x1="312.13559"
       y1="377.53726"
       x2="360.13559"
       y2="349.28812"
       gradientUnits="userSpaceOnUse" />
    <linearGradient
       inkscape:collect="always"
       xlink:href="#linearGradient1012"
       id="linearGradient936"
       x1="312.13559"
       y1="377.53726"
       x2="360.13559"
       y2="349.28812"
       gradientUnits="userSpaceOnUse" />
    <linearGradient
       inkscape:collect="always"
       xlink:href="#linearGradient1006"
       id="linearGradient938"
       x1="312.13559"
       y1="377.53726"
       x2="360.13559"
       y2="349.28812"
       gradientUnits="userSpaceOnUse" />
    <linearGradient
       inkscape:collect="always"
       xlink:href="#linearGradient1000"
       id="linearGradient940"
       x1="312.13559"
       y1="377.53726"
       x2="360.13559"
       y2="349.28812"
       gradientUnits="userSpaceOnUse" />
    <linearGradient
       inkscape:collect="always"
       xlink:href="#linearGradient994"
       id="linearGradient942"
       x1="312.13559"
       y1="377.53726"
       x2="360.13559"
       y2="349.28812"
       gradientUnits="userSpaceOnUse" />
    <linearGradient
       inkscape:collect="always"
       xlink:href="#linearGradient988"
       id="linearGradient944"
       x1="312.13559"
       y1="377.53726"
       x2="360.13559"
       y2="349.28812"
       gradientUnits="userSpaceOnUse" />
    <linearGradient
       inkscape:collect="always"
       xlink:href="#linearGradient982"
       id="linearGradient946"
       x1="312.13559"
       y1="377.53726"
       x2="360.13559"
       y2="349.28812"
       gradientUnits="userSpaceOnUse" />
    <linearGradient
       inkscape:collect="always"
       xlink:href="#linearGradient976"
       id="linearGradient948"
       x1="312.13559"
       y1="377.53726"
       x2="360.13559"
       y2="349.28812"
       gradientUnits="userSpaceOnUse" />
    <linearGradient
       inkscape:collect="always"
       xlink:href="#linearGradient970"
       id="linearGradient950"
       x1="312.13559"
       y1="377.53726"
       x2="360.13559"
       y2="349.28812"
       gradientUnits="userSpaceOnUse" />
    <linearGradient
       inkscape:collect="always"
       xlink:href="#linearGradient964"
       id="linearGradient952"
       x1="312.13559"
       y1="377.53726"
       x2="360.13559"
       y2="349.28812"
       gradientUnits="userSpaceOnUse" />
  </defs>
  <sodipodi:namedview
     pagecolor="#ffffff"
     bordercolor="#666666"
     borderopacity="1"
     objecttolerance="10"
     gridtolerance="10"
     guidetolerance="10"
     inkscape:pageopacity="0"
     inkscape:pageshadow="2"
     inkscape:window-width="1366"
     inkscape:window-height="715"
     id="namedview26"
     showgrid="false"
     inkscape:zoom="0.34570313"
     inkscape:cx="106.10464"
     inkscape:cy="341.33333"
     inkscape:window-x="0"
     inkscape:window-y="27"
     inkscape:window-maximized="1"
     inkscape:current-layer="svg24" />
  <path
     d="m160 32h320v16h-320zm0 0"
     id="path2"
     style="fill:url(#linearGradient952);fill-opacity:1" />
  <path
     d="m32 32h16v16h-16zm0 0"
     id="path4"
     style="fill:url(#linearGradient950);fill-opacity:1" />
  <path
     d="m64 32h16v16h-16zm0 0"
     id="path6"
     style="fill:url(#linearGradient948);fill-opacity:1" />
  <path
     d="m96 32h16v16h-16zm0 0"
     id="path8"
     style="fill:url(#linearGradient946);fill-opacity:1" />
  <path
     d="m32 407.910156h16v16h-16zm0 0"
     id="path10"
     style="fill:url(#linearGradient944);fill-opacity:1" />
  <path
     d="m464 407.910156h16v16h-16zm0 0"
     id="path12"
     style="fill:url(#linearGradient942);fill-opacity:1" />
  <path
     d="m32 160h80v16h-80zm0 0"
     id="path14"
     style="fill:url(#linearGradient940);fill-opacity:1" />
  <path
     d="m32 192h48v16h-48zm0 0"
     id="path16"
     style="fill:url(#linearGradient938);fill-opacity:1" />
  <path
     d="m400 160h80v16h-80zm0 0"
     id="path18"
     style="fill:url(#linearGradient936);fill-opacity:1" />
  <path
     d="m432 192h48v16h-48zm0 0"
     id="path20"
     style="fill:url(#linearGradient934);fill-opacity:1" />
  <path
     d="m0 0v279.910156h64v160h-64v16h80v-24h32.910156c4.6875-.003906 9.140625 2.042969 12.1875 5.601563l54.980469 64.609375c9.996094 11.671875 27.523437 13.140625 39.320313 3.292968l10.203124-8.519531c10.335938 6.816407 23.921876 6.03125 33.40625-1.925781l10.089844-8.464844c10.339844 6.796875 23.914063 6.011719 33.40625-1.929687l10.089844-8.453125c10.34375 6.785156 23.910156 6.003906 33.40625-1.929688 5.699219-4.753906 9.261719-11.59375 9.886719-18.992187.046875-.855469.046875-1.71875 0-2.574219l34.402343-20.6875h37.710938v24.0625h80v-16h-64v-160h64v-280zm339.710938 461.929688c-5.074219 4.257812-12.640626 3.601562-16.902344-1.472657l-5.144532-6.136719-28.28125-33.710937-12.246093 10.277344 28.277343 33.714843-9.191406 7.710938c-5.078125 4.261719-12.652344 3.601562-16.910156-1.480469l-1.921875-2.289062-28.917969-34.472657-12.273437 10.28125 25.710937 30.648438-9.183594 7.710938c-5.078124 4.265624-12.648437 3.601562-16.910156-1.480469l-1.929687-2.292969-2.757813-3.296875-.457031-.535156-12.847656-15.3125-12.222657 10.277343 12.796876 15.3125-9.292969 7.800782c-5.050781 4.242187-12.582031 3.613281-16.859375-1.40625l-54.964844-64.578125c-6.082031-7.140625-14.988281-11.257813-24.371094-11.253907h-32.910156v-111.945312h41.382812l49.015626-32h59.203124l12.894532 8.542969-77.335938 61.808593 4.304688 6.152344c8.546875 12.296875 21.753906 20.5625 36.550781 22.871094 2.929687.472656 5.890625.710938 8.855469.714844 11.914062 0 23.5-3.886719 33-11.074219l14.023437-10.519531 79.3125 94.527344c4.257813 5.078124 3.597657 12.644531-1.480469 16.90625zm-182.304688-304.328126 16.160156-16.160156 28.832032 13.679688 31.441406-13.015625 10.726562-30.105469h22.867188l10.703125 30.105469 31.464843 13.015625 28.796876-13.714844 16.160156 16.160156-13.679688 28.832032 13.015625 31.441406 30.105469 10.726562v22.867188l-28.886719 10.269531-8.714843-5.703125h-15.078126c.449219-3.316406.675782-6.65625.679688-10 0-41.972656-34.027344-76-76-76s-76 34.027344-76 76c.003906 3.34375.230469 6.683594.679688 10h-15.078126l-8.730468 5.703125-28.871094-10.269531v-22.867188l30.105469-10.703125 13.015625-31.464843zm98.59375 43.398438c-13.617188-.027344-26.476562 6.265625-34.8125 17.03125-8.332031 10.769531-11.203125 24.792969-7.761719 37.96875h-16.480469c-.601562-3.300781-.917968-6.644531-.945312-10 0-33.136719 26.863281-60 60-60s60 26.863281 60 60c-.027344 3.355469-.34375 6.699219-.945312 10h-16.480469c3.441406-13.175781.570312-27.199219-7.761719-37.96875-8.335938-10.765625-21.195312-17.058594-34.8125-17.03125zm28 44c-.007812 3.78125-.78125 7.523438-2.273438 11h-8.535156l-17.597656 14.054688-21.195312-14.054688h-4.140626c-4.472656-10.449219-2.179687-22.5625 5.796876-30.660156 7.972656-8.097656 20.054687-10.570313 30.566406-6.257813 10.515625 4.3125 17.382812 14.550781 17.378906 25.917969zm148 170.910156h-42.214844l-34.855468 20.992188c-.496094-.71875-80.234376-96-80.234376-96l14.105469-10.589844-9.601562-12.800781-40.933594 30.703125c-15.441406 11.558594-36.988281 10.203125-50.859375-3.199219l91.402344-73.015625h62.792968l49 32h41.398438zm64-151.910156h-64v24h-36.617188l-23.4375-15.304688 28.054688-9.96875v-45.453124l-34.039062-12.097657-7.5625-18.304687 15.503906-32.632813-32.140625-32.125-32.632813 15.488281-18.304687-7.578124-12.097657-34.023438h-45.453124l-12.097657 34.039062-18.304687 7.578126-32.632813-15.503907-32.125 32.125 15.488281 32.632813-7.578124 18.304687-34.023438 12.097657v45.453124l28.054688 9.96875-23.4375 15.304688h-36.617188v-24.089844h-64v-183.910156h480zm0-200h-480v-48h480zm0 0"
     id="path22"
     style="fill:url(#linearGradient932);fill-opacity:1" />
</svg>
